M48
;Layer_Color=6321
;FILE_FORMAT=2:5
INCH,TZ
;TYPE=PLATED
T1F00S00C0.01575
T3F00S00C0.03346
T4F00S00C0.03543
T5F00S00C0.03937
T6F00S00C0.05000
%
T01
X390264Y309055
X397264
X233752
X226752
Y277559
X233752
Y244094
X226752
Y212598
X233752
Y340551
X226752
X390264Y338583
X397264
T03
X316929Y252717
X334646
Y282717
X334646Y299961
X352362
X368110
X399606Y282717
Y252717
X316929Y282717
Y299961
X204724Y288622
Y311772
Y258622
Y341772
X316929Y329961
X334646
X352362
X368110
T04
X260591Y202717
Y212717
Y222717
Y232717
Y242717
Y252717
Y262717
Y272717
Y282717
Y292717
Y302717
X290591
Y292717
Y282717
Y272717
Y262717
Y252717
Y242717
Y232717
Y222717
Y212717
Y202717
Y312717
Y322717
Y332717
X260591
Y322717
Y312717
T05
X314803Y360236
X324803
X334803
T06
X270591Y358268
X280591
M30
