M48
;Layer_Color=6321
;FILE_FORMAT=2:5
INCH,TZ
;TYPE=PLATED
T2F00S00C0.01575
%
G90
G05
T02
G00X318110Y204724
M15
G01X319685
M16
G00X335827Y204724
M15
G01X337402
M16
G00X357480Y204724
M15
G01X359055
M16
G00X375197Y204724
M15
G01X376772
M16
G00X398819Y204724
M15
G01X400394
M16
G00X416536Y204724
M15
G01X418110
M16
G00X416536Y230315
M15
G01X418110
M16
G00X398819Y230315
M15
G01X400394
M16
G00X375197Y230315
M15
G01X376772
M16
G00X357480Y230315
M15
G01X359055
M16
G00X335827Y230315
M15
G01X337402
M16
G00X318110Y230315
M15
G01X319685
M16
G00X357480Y255905
M15
G01X359055
M16
G00X375197Y255905
M15
G01X376772
M16
G00X375197Y281496
M15
G01X376772
M16
G00X357480Y281496
M15
G01X359055
M16
M17
M30
