G04 Layer_Color=11767835*
%FSLAX25Y25*%
%MOIN*%
G70*
G01*
G75*
%ADD10R,0.06299X0.06299*%
%ADD11C,0.06299*%
%ADD12C,0.05512*%
%ADD13C,0.06000*%
%ADD14C,0.07000*%
%ADD15C,0.05905*%
%ADD16R,0.05905X0.05905*%
%ADD17C,0.03937*%
%ADD18R,0.03937X0.03937*%
%ADD19R,0.06000X0.06000*%
D10*
X314803Y360236D02*
D03*
D11*
X324803D02*
D03*
X334803D02*
D03*
D12*
X334646Y299961D02*
D03*
Y329961D02*
D03*
X316929Y252717D02*
D03*
Y282717D02*
D03*
X204724Y288622D02*
D03*
Y258622D02*
D03*
X368110Y299961D02*
D03*
Y329961D02*
D03*
X352362Y299961D02*
D03*
Y329961D02*
D03*
X399606Y252717D02*
D03*
Y282717D02*
D03*
X334646D02*
D03*
Y252717D02*
D03*
X316929Y329961D02*
D03*
Y299961D02*
D03*
X204724Y341772D02*
D03*
Y311772D02*
D03*
D13*
X417323Y269685D02*
D03*
X417323Y204724D02*
D03*
Y230315D02*
D03*
X399606Y204724D02*
D03*
Y230315D02*
D03*
X336614Y204724D02*
D03*
Y230315D02*
D03*
X318898Y204724D02*
D03*
Y230315D02*
D03*
X375984Y204724D02*
D03*
Y230315D02*
D03*
X358268Y204724D02*
D03*
Y230315D02*
D03*
X375984Y255905D02*
D03*
Y281496D02*
D03*
X358268Y255905D02*
D03*
Y281496D02*
D03*
D14*
X270591Y358268D02*
D03*
X280591D02*
D03*
D15*
X290591Y202717D02*
D03*
Y212717D02*
D03*
Y222717D02*
D03*
Y232717D02*
D03*
Y242717D02*
D03*
Y252717D02*
D03*
Y262717D02*
D03*
Y272717D02*
D03*
Y282717D02*
D03*
Y292717D02*
D03*
Y302717D02*
D03*
Y312717D02*
D03*
Y322717D02*
D03*
Y332717D02*
D03*
X260591Y202717D02*
D03*
Y212717D02*
D03*
Y222717D02*
D03*
Y232717D02*
D03*
Y242717D02*
D03*
Y252717D02*
D03*
Y262717D02*
D03*
Y272717D02*
D03*
Y282717D02*
D03*
Y292717D02*
D03*
Y302717D02*
D03*
Y312717D02*
D03*
Y322717D02*
D03*
D16*
Y332717D02*
D03*
D17*
X226752Y340551D02*
D03*
Y212598D02*
D03*
Y244094D02*
D03*
Y277559D02*
D03*
Y309055D02*
D03*
X397264Y338583D02*
D03*
Y309055D02*
D03*
D18*
X233752Y340551D02*
D03*
Y212598D02*
D03*
Y244094D02*
D03*
Y277559D02*
D03*
Y309055D02*
D03*
X390264Y338583D02*
D03*
Y309055D02*
D03*
D19*
X417323Y259842D02*
D03*
M02*
