M48
;Layer_Color=9474304
;FILE_FORMAT=2:5
INCH,TZ
;TYPE=PLATED
T1F00S00C0.01968
T3F00S00C0.02800
T4F00S00C0.03346
T5F00S00C0.03543
T6F00S00C0.03898
T7F00S00C0.03937
%
T01
X440500Y254500
X448374
X448874Y276500
X441000
X441626Y299500
X449500
X303500Y324500
Y332374
X327000
Y324500
X350500Y325000
Y332874
X374000Y333374
Y325500
X377126Y356000
X385000
X355000
X347126
X414000Y349000
X421874
T03
X420500Y191500
X432000Y242500
X429000Y251500
Y259500
X456500Y244500
X465000
T04
X336000Y197500
X345000
X375000
X383500
X413500
X336500Y243000
X306500
X306000Y197500
X293000Y345500
Y355500
Y364500
X323000
Y355500
Y345500
X401500Y332000
Y323000
X431500
Y332000
T05
X317597Y275500
X327597
X337597
X347597
X357597
X367597
X377597
X387597
X397597
X407597
X417597
X427597
Y305500
X417597
X407597
X397597
X387597
X377597
X367597
X357597
X347597
X337597
X327597
X317597
X391000Y255000
Y245000
X307597Y275500
X297597
Y305500
X307597
T06
X334925Y211642
X348630
Y229358
Y242642
Y260358
X374220
Y242642
Y229358
X388705
Y211642
X374220
X414295
Y229358
X334925
X309335
Y211642
T07
X457500Y323000
Y333000
Y343000
M30
