G04*
G04 #@! TF.GenerationSoftware,Altium Limited,Altium Designer,20.1.11 (218)*
G04*
G04 Layer_Color=65535*
%FSLAX25Y25*%
%MOIN*%
G70*
G04*
G04 #@! TF.SameCoordinates,E6333289-3B3F-416E-ACC7-16277D215EEB*
G04*
G04*
G04 #@! TF.FilePolarity,Positive*
G04*
G01*
G75*
%ADD10C,0.00787*%
%ADD11C,0.02362*%
%ADD12C,0.00984*%
%ADD13C,0.00500*%
%ADD14C,0.00591*%
D10*
X427779Y349000D02*
X427729Y349996D01*
X427578Y350981D01*
X427328Y351946D01*
X426982Y352882D01*
X426543Y353777D01*
X426015Y354623D01*
X425405Y355411D01*
X424718Y356134D01*
X423962Y356783D01*
X423143Y357353D01*
X422272Y357837D01*
X421355Y358230D01*
X420404Y358528D01*
X419427Y358729D01*
X418435Y358830D01*
X417439D01*
X416447Y358729D01*
X415470Y358528D01*
X414519Y358230D01*
X413602Y357837D01*
X412731Y357353D01*
X411912Y356783D01*
X411156Y356134D01*
X410469Y355411D01*
X409859Y354623D01*
X409331Y353777D01*
X408892Y352881D01*
X408546Y351946D01*
X408296Y350981D01*
X408145Y349996D01*
X408095Y349000D01*
X408145Y348004D01*
X408296Y347019D01*
X408546Y346054D01*
X408892Y345118D01*
X409331Y344223D01*
X409859Y343377D01*
X410469Y342589D01*
X411156Y341866D01*
X411912Y341217D01*
X412731Y340647D01*
X413602Y340163D01*
X414519Y339770D01*
X415470Y339472D01*
X416447Y339271D01*
X417439Y339170D01*
X418435D01*
X419427Y339271D01*
X420404Y339472D01*
X421355Y339770D01*
X422272Y340163D01*
X423143Y340647D01*
X423962Y341217D01*
X424718Y341866D01*
X425405Y342589D01*
X426015Y343377D01*
X426543Y344223D01*
X426982Y345119D01*
X427328Y346054D01*
X427578Y347019D01*
X427729Y348004D01*
X427779Y349000D01*
X360906Y356000D02*
X360855Y356996D01*
X360704Y357981D01*
X360454Y358946D01*
X360108Y359881D01*
X359669Y360777D01*
X359141Y361623D01*
X358531Y362411D01*
X357844Y363134D01*
X357088Y363783D01*
X356269Y364353D01*
X355398Y364837D01*
X354481Y365230D01*
X353530Y365528D01*
X352553Y365729D01*
X351561Y365830D01*
X350565D01*
X349573Y365729D01*
X348596Y365528D01*
X347645Y365230D01*
X346728Y364837D01*
X345857Y364353D01*
X345038Y363783D01*
X344282Y363134D01*
X343595Y362411D01*
X342985Y361623D01*
X342457Y360777D01*
X342018Y359881D01*
X341672Y358946D01*
X341422Y357981D01*
X341271Y356996D01*
X341220Y356000D01*
X341271Y355004D01*
X341422Y354019D01*
X341672Y353053D01*
X342018Y352118D01*
X342457Y351223D01*
X342985Y350377D01*
X343595Y349589D01*
X344282Y348866D01*
X345038Y348217D01*
X345857Y347647D01*
X346728Y347163D01*
X347645Y346770D01*
X348596Y346472D01*
X349573Y346271D01*
X350565Y346170D01*
X351561D01*
X352553Y346271D01*
X353530Y346472D01*
X354481Y346770D01*
X355398Y347163D01*
X356269Y347647D01*
X357088Y348217D01*
X357844Y348866D01*
X358531Y349589D01*
X359141Y350377D01*
X359669Y351223D01*
X360108Y352119D01*
X360454Y353053D01*
X360704Y354019D01*
X360855Y355004D01*
X360906Y356000D01*
X390905D02*
X390855Y356996D01*
X390704Y357981D01*
X390454Y358946D01*
X390108Y359881D01*
X389669Y360777D01*
X389141Y361623D01*
X388531Y362411D01*
X387844Y363134D01*
X387088Y363783D01*
X386269Y364353D01*
X385398Y364837D01*
X384481Y365230D01*
X383530Y365528D01*
X382553Y365729D01*
X381561Y365830D01*
X380564D01*
X379573Y365729D01*
X378596Y365528D01*
X377645Y365230D01*
X376728Y364837D01*
X375857Y364353D01*
X375038Y363783D01*
X374282Y363134D01*
X373595Y362411D01*
X372985Y361623D01*
X372457Y360777D01*
X372018Y359881D01*
X371672Y358946D01*
X371422Y357981D01*
X371271Y356996D01*
X371220Y356000D01*
X371271Y355004D01*
X371422Y354019D01*
X371672Y353053D01*
X372018Y352118D01*
X372457Y351223D01*
X372985Y350377D01*
X373595Y349589D01*
X374282Y348866D01*
X375038Y348217D01*
X375857Y347647D01*
X376728Y347163D01*
X377645Y346770D01*
X378596Y346472D01*
X379573Y346271D01*
X380564Y346170D01*
X381561D01*
X382553Y346271D01*
X383530Y346472D01*
X384481Y346770D01*
X385398Y347163D01*
X386269Y347647D01*
X387088Y348217D01*
X387844Y348866D01*
X388531Y349589D01*
X389141Y350377D01*
X389669Y351223D01*
X390108Y352119D01*
X390454Y353053D01*
X390704Y354019D01*
X390855Y355004D01*
X390905Y356000D01*
X455406Y299500D02*
X455355Y300496D01*
X455204Y301481D01*
X454954Y302447D01*
X454608Y303381D01*
X454169Y304277D01*
X453641Y305123D01*
X453031Y305911D01*
X452344Y306634D01*
X451588Y307283D01*
X450769Y307853D01*
X449898Y308337D01*
X448981Y308730D01*
X448030Y309028D01*
X447053Y309229D01*
X446062Y309330D01*
X445064D01*
X444073Y309229D01*
X443096Y309028D01*
X442145Y308730D01*
X441228Y308337D01*
X440357Y307853D01*
X439538Y307283D01*
X438782Y306634D01*
X438095Y305911D01*
X437485Y305123D01*
X436957Y304277D01*
X436518Y303381D01*
X436172Y302447D01*
X435922Y301481D01*
X435771Y300496D01*
X435720Y299500D01*
X435771Y298504D01*
X435922Y297519D01*
X436172Y296553D01*
X436518Y295619D01*
X436957Y294723D01*
X437485Y293877D01*
X438095Y293089D01*
X438782Y292366D01*
X439538Y291717D01*
X440357Y291147D01*
X441228Y290663D01*
X442145Y290270D01*
X443096Y289972D01*
X444073Y289771D01*
X445064Y289670D01*
X446062D01*
X447053Y289771D01*
X448030Y289972D01*
X448981Y290270D01*
X449898Y290663D01*
X450769Y291147D01*
X451588Y291717D01*
X452344Y292366D01*
X453031Y293089D01*
X453641Y293877D01*
X454169Y294723D01*
X454608Y295619D01*
X454954Y296553D01*
X455204Y297519D01*
X455355Y298504D01*
X455406Y299500D01*
X432282Y293000D02*
X431326Y292810D01*
X430515Y292268D01*
X429973Y291457D01*
X429782Y290500D01*
X429973Y289543D01*
X430515Y288732D01*
X431326Y288190D01*
X432282Y288000D01*
X383842Y329437D02*
X383792Y330433D01*
X383641Y331418D01*
X383391Y332383D01*
X383045Y333318D01*
X382606Y334214D01*
X382078Y335060D01*
X381468Y335848D01*
X380781Y336571D01*
X380025Y337220D01*
X379206Y337790D01*
X378335Y338274D01*
X377418Y338667D01*
X376467Y338965D01*
X375490Y339166D01*
X374499Y339267D01*
X373501D01*
X372510Y339166D01*
X371533Y338965D01*
X370582Y338667D01*
X369665Y338274D01*
X368794Y337790D01*
X367975Y337220D01*
X367219Y336571D01*
X366532Y335848D01*
X365922Y335060D01*
X365394Y334214D01*
X364955Y333318D01*
X364609Y332383D01*
X364359Y331418D01*
X364208Y330433D01*
X364158Y329437D01*
X364208Y328441D01*
X364359Y327456D01*
X364609Y326490D01*
X364955Y325555D01*
X365394Y324660D01*
X365922Y323814D01*
X366532Y323026D01*
X367219Y322303D01*
X367975Y321654D01*
X368794Y321084D01*
X369665Y320600D01*
X370582Y320207D01*
X371533Y319909D01*
X372510Y319708D01*
X373501Y319607D01*
X374499D01*
X375490Y319708D01*
X376467Y319909D01*
X377418Y320207D01*
X378335Y320600D01*
X379206Y321084D01*
X380025Y321654D01*
X380781Y322303D01*
X381468Y323026D01*
X382078Y323814D01*
X382606Y324660D01*
X383045Y325556D01*
X383391Y326490D01*
X383641Y327456D01*
X383792Y328441D01*
X383842Y329437D01*
X360343Y328937D02*
X360292Y329933D01*
X360141Y330918D01*
X359891Y331884D01*
X359545Y332819D01*
X359106Y333714D01*
X358578Y334560D01*
X357968Y335348D01*
X357281Y336071D01*
X356525Y336720D01*
X355706Y337290D01*
X354835Y337774D01*
X353918Y338167D01*
X352967Y338465D01*
X351990Y338666D01*
X350998Y338767D01*
X350002D01*
X349010Y338666D01*
X348033Y338465D01*
X347082Y338167D01*
X346165Y337774D01*
X345294Y337290D01*
X344475Y336720D01*
X343719Y336071D01*
X343032Y335348D01*
X342422Y334560D01*
X341894Y333714D01*
X341455Y332819D01*
X341109Y331884D01*
X340859Y330918D01*
X340708Y329933D01*
X340657Y328937D01*
X340708Y327941D01*
X340859Y326956D01*
X341109Y325991D01*
X341455Y325056D01*
X341894Y324160D01*
X342422Y323314D01*
X343032Y322526D01*
X343719Y321803D01*
X344475Y321154D01*
X345294Y320584D01*
X346165Y320100D01*
X347082Y319707D01*
X348033Y319409D01*
X349010Y319208D01*
X350002Y319107D01*
X350998D01*
X351991Y319208D01*
X352967Y319409D01*
X353918Y319707D01*
X354835Y320100D01*
X355706Y320584D01*
X356525Y321154D01*
X357281Y321803D01*
X357968Y322526D01*
X358578Y323314D01*
X359106Y324160D01*
X359545Y325056D01*
X359891Y325991D01*
X360141Y326956D01*
X360292Y327941D01*
X360343Y328937D01*
X336842Y328437D02*
X336792Y329433D01*
X336641Y330418D01*
X336391Y331383D01*
X336045Y332318D01*
X335606Y333214D01*
X335078Y334060D01*
X334468Y334848D01*
X333781Y335571D01*
X333025Y336220D01*
X332206Y336790D01*
X331335Y337274D01*
X330418Y337667D01*
X329467Y337965D01*
X328490Y338166D01*
X327499Y338267D01*
X326501D01*
X325510Y338166D01*
X324533Y337965D01*
X323582Y337667D01*
X322665Y337274D01*
X321794Y336790D01*
X320975Y336220D01*
X320219Y335571D01*
X319532Y334848D01*
X318922Y334060D01*
X318394Y333214D01*
X317955Y332318D01*
X317609Y331383D01*
X317359Y330418D01*
X317208Y329433D01*
X317158Y328437D01*
X317208Y327441D01*
X317359Y326456D01*
X317609Y325490D01*
X317955Y324555D01*
X318394Y323660D01*
X318922Y322814D01*
X319532Y322026D01*
X320219Y321303D01*
X320975Y320654D01*
X321794Y320084D01*
X322665Y319600D01*
X323582Y319207D01*
X324533Y318909D01*
X325510Y318708D01*
X326501Y318607D01*
X327499D01*
X328490Y318708D01*
X329467Y318909D01*
X330418Y319207D01*
X331335Y319600D01*
X332206Y320084D01*
X333025Y320654D01*
X333781Y321303D01*
X334468Y322026D01*
X335078Y322814D01*
X335606Y323660D01*
X336045Y324556D01*
X336391Y325490D01*
X336641Y326456D01*
X336792Y327441D01*
X336842Y328437D01*
X313342D02*
X313292Y329433D01*
X313141Y330418D01*
X312891Y331383D01*
X312545Y332318D01*
X312106Y333214D01*
X311578Y334060D01*
X310968Y334848D01*
X310281Y335571D01*
X309525Y336220D01*
X308706Y336790D01*
X307835Y337274D01*
X306918Y337667D01*
X305967Y337965D01*
X304990Y338166D01*
X303998Y338267D01*
X303001D01*
X302010Y338166D01*
X301033Y337965D01*
X300082Y337667D01*
X299165Y337274D01*
X298294Y336790D01*
X297475Y336220D01*
X296719Y335571D01*
X296032Y334848D01*
X295422Y334060D01*
X294894Y333214D01*
X294455Y332318D01*
X294109Y331383D01*
X293859Y330418D01*
X293708Y329433D01*
X293657Y328437D01*
X293708Y327441D01*
X293859Y326456D01*
X294109Y325490D01*
X294455Y324555D01*
X294894Y323660D01*
X295422Y322814D01*
X296032Y322026D01*
X296719Y321303D01*
X297475Y320654D01*
X298294Y320084D01*
X299165Y319600D01*
X300082Y319207D01*
X301033Y318909D01*
X302010Y318708D01*
X303001Y318607D01*
X303998D01*
X304991Y318708D01*
X305967Y318909D01*
X306918Y319207D01*
X307835Y319600D01*
X308706Y320084D01*
X309525Y320654D01*
X310281Y321303D01*
X310968Y322026D01*
X311578Y322814D01*
X312106Y323660D01*
X312545Y324556D01*
X312891Y325490D01*
X313141Y326456D01*
X313292Y327441D01*
X313342Y328437D01*
X379319Y211642D02*
X378532D01*
X379319D01*
X454779Y276500D02*
X454729Y277496D01*
X454578Y278481D01*
X454328Y279447D01*
X453982Y280381D01*
X453543Y281277D01*
X453015Y282123D01*
X452405Y282911D01*
X451718Y283634D01*
X450962Y284283D01*
X450143Y284853D01*
X449272Y285337D01*
X448355Y285730D01*
X447404Y286028D01*
X446427Y286229D01*
X445435Y286330D01*
X444439D01*
X443447Y286229D01*
X442470Y286028D01*
X441519Y285730D01*
X440602Y285337D01*
X439731Y284853D01*
X438912Y284283D01*
X438156Y283634D01*
X437469Y282911D01*
X436859Y282123D01*
X436331Y281277D01*
X435892Y280381D01*
X435546Y279447D01*
X435296Y278481D01*
X435145Y277496D01*
X435094Y276500D01*
X435145Y275504D01*
X435296Y274519D01*
X435546Y273553D01*
X435892Y272619D01*
X436331Y271723D01*
X436859Y270877D01*
X437469Y270089D01*
X438156Y269366D01*
X438912Y268717D01*
X439731Y268147D01*
X440602Y267663D01*
X441519Y267270D01*
X442470Y266972D01*
X443447Y266771D01*
X444439Y266670D01*
X445435D01*
X446427Y266771D01*
X447404Y266972D01*
X448355Y267270D01*
X449272Y267663D01*
X450143Y268147D01*
X450962Y268717D01*
X451718Y269366D01*
X452405Y270089D01*
X453015Y270877D01*
X453543Y271723D01*
X453982Y272619D01*
X454328Y273553D01*
X454578Y274519D01*
X454729Y275504D01*
X454779Y276500D01*
X454280Y254500D02*
X454229Y255496D01*
X454078Y256481D01*
X453828Y257447D01*
X453482Y258382D01*
X453043Y259277D01*
X452515Y260123D01*
X451905Y260911D01*
X451218Y261634D01*
X450462Y262283D01*
X449643Y262853D01*
X448772Y263337D01*
X447855Y263730D01*
X446904Y264028D01*
X445927Y264229D01*
X444936Y264330D01*
X443938D01*
X442947Y264229D01*
X441970Y264028D01*
X441019Y263730D01*
X440102Y263337D01*
X439231Y262853D01*
X438412Y262283D01*
X437656Y261634D01*
X436969Y260911D01*
X436359Y260123D01*
X435831Y259277D01*
X435392Y258381D01*
X435046Y257447D01*
X434796Y256481D01*
X434645Y255496D01*
X434594Y254500D01*
X434645Y253504D01*
X434796Y252519D01*
X435046Y251554D01*
X435392Y250619D01*
X435831Y249723D01*
X436359Y248877D01*
X436969Y248089D01*
X437656Y247366D01*
X438412Y246717D01*
X439231Y246147D01*
X440102Y245663D01*
X441019Y245270D01*
X441970Y244972D01*
X442947Y244771D01*
X443938Y244670D01*
X444936D01*
X445927Y244771D01*
X446904Y244972D01*
X447855Y245270D01*
X448772Y245663D01*
X449643Y246147D01*
X450462Y246717D01*
X451218Y247366D01*
X451905Y248089D01*
X452515Y248877D01*
X453043Y249723D01*
X453482Y250619D01*
X453828Y251554D01*
X454078Y252519D01*
X454229Y253504D01*
X454280Y254500D01*
X344319Y260358D02*
X343531D01*
X344319D01*
X419394Y211642D02*
X418606D01*
X419394D01*
X340024D02*
X339236D01*
X340024D01*
X412000Y354500D02*
X416000D01*
X414000Y352500D02*
Y356500D01*
X318000Y364500D02*
Y367500D01*
X298000D02*
X318000D01*
X298000Y361500D02*
Y367500D01*
Y361500D02*
X318000D01*
Y364500D01*
X297100D02*
X298000D01*
X318000D02*
X318900D01*
X318000Y355500D02*
Y358500D01*
X298000D02*
X318000D01*
X298000Y352500D02*
Y358500D01*
Y352500D02*
X318000D01*
Y355500D01*
X297100D02*
X298000D01*
X318000D02*
X318900D01*
X353000Y350500D02*
X357000D01*
X355000Y348500D02*
Y352500D01*
X383000Y350500D02*
X387000D01*
X385000Y348500D02*
Y352500D01*
X450610Y311937D02*
Y354063D01*
X448642Y311937D02*
Y354063D01*
X467539Y311937D02*
Y354063D01*
X448642Y311937D02*
X467539D01*
X448642Y354063D02*
X467539D01*
X439626Y305000D02*
X443626D01*
X441626Y303000D02*
Y307000D01*
X406500Y329000D02*
Y332000D01*
Y329000D02*
X426500D01*
Y335000D01*
X406500D02*
X426500D01*
X406500Y332000D02*
Y335000D01*
X426500Y332000D02*
X427400D01*
X405600D02*
X406500D01*
Y320000D02*
Y323000D01*
Y320000D02*
X426500D01*
Y326000D01*
X406500D02*
X426500D01*
X406500Y323000D02*
Y326000D01*
X426500Y323000D02*
X427400D01*
X405600D02*
X406500D01*
X296000Y324500D02*
X300000D01*
X298000Y322500D02*
Y326500D01*
X366500Y325500D02*
X370500D01*
X368500Y323500D02*
Y327500D01*
X292912Y280067D02*
Y300933D01*
X432282Y280067D02*
Y288000D01*
Y293000D02*
Y300933D01*
X292912Y280067D02*
X432282D01*
X292912Y300933D02*
X432282D01*
X345000Y323000D02*
Y327000D01*
X343000Y325000D02*
X347000D01*
X321500Y322500D02*
Y326500D01*
X319500Y324500D02*
X323500D01*
X386000Y240000D02*
X396000D01*
X386000D02*
Y260000D01*
X396000D01*
Y240000D02*
Y260000D01*
X462138Y220543D02*
X466862D01*
X446874Y271000D02*
X450874D01*
X448874Y269000D02*
Y273000D01*
X446374Y249000D02*
X450374D01*
X448374Y247000D02*
Y251000D01*
X416638Y245500D02*
X421362D01*
X406638D02*
X411362D01*
X449496Y216764D02*
Y237236D01*
X436504Y216764D02*
Y237236D01*
Y216764D02*
X449496D01*
X436504Y237236D02*
X449496D01*
X331000Y197500D02*
Y200500D01*
X311000D02*
X331000D01*
X311000Y194500D02*
Y200500D01*
Y194500D02*
X331000D01*
Y197500D01*
X310100D02*
X311000D01*
X331000D02*
X331900D01*
X370000D02*
Y200500D01*
X350000D02*
X370000D01*
X350000Y194500D02*
Y200500D01*
Y194500D02*
X370000D01*
Y197500D01*
X349100D02*
X350000D01*
X370000D02*
X370900D01*
X331500Y243000D02*
Y246000D01*
X311500D02*
X331500D01*
X311500Y240000D02*
Y246000D01*
Y240000D02*
X331500D01*
Y243000D01*
X310600D02*
X311500D01*
X331500D02*
X332400D01*
X408500Y197500D02*
Y200500D01*
X388500D02*
X408500D01*
X388500Y194500D02*
Y200500D01*
Y194500D02*
X408500D01*
Y197500D01*
X387600D02*
X388500D01*
X408500D02*
X409400D01*
X457717Y186004D02*
Y188760D01*
Y196240D02*
Y198209D01*
X450236Y203720D02*
X451417D01*
X434882D02*
X436063D01*
X428583Y196240D02*
Y198209D01*
Y186004D02*
Y188760D01*
Y186004D02*
X457717D01*
X428583Y181673D02*
Y186004D01*
Y181673D02*
X457717D01*
Y186004D01*
X318000Y345500D02*
Y348500D01*
X298000D02*
X318000D01*
X298000Y342500D02*
Y348500D01*
Y342500D02*
X318000D01*
Y345500D01*
X297100D02*
X298000D01*
X318000D02*
X318900D01*
D11*
X429527Y296996D02*
X429082Y297920D01*
X428083Y298148D01*
X427281Y297509D01*
Y296484D01*
X428083Y295845D01*
X429082Y296073D01*
X429527Y296996D01*
X446740Y220701D02*
X446295Y221624D01*
X445296Y221852D01*
X444495Y221213D01*
Y220188D01*
X445296Y219549D01*
X446295Y219777D01*
X446740Y220701D01*
D12*
X433208Y305500D02*
X432470Y305926D01*
Y305074D01*
X433208Y305500D01*
X454417Y216154D02*
X453679Y216580D01*
Y215727D01*
X454417Y216154D01*
D13*
X368335Y220500D02*
X368261Y221506D01*
X368042Y222491D01*
X367681Y223433D01*
X367188Y224312D01*
X366571Y225111D01*
X365845Y225811D01*
X365025Y226398D01*
X364127Y226859D01*
X363173Y227185D01*
X362181Y227368D01*
X361173Y227405D01*
X360170Y227294D01*
X359194Y227039D01*
X358266Y226645D01*
X357405Y226119D01*
X356629Y225474D01*
X355956Y224723D01*
X355400Y223882D01*
X354972Y222968D01*
X354681Y222002D01*
X354534Y221004D01*
Y219996D01*
X354681Y218998D01*
X354972Y218032D01*
X355400Y217118D01*
X355956Y216277D01*
X356629Y215526D01*
X357405Y214881D01*
X358266Y214355D01*
X359194Y213961D01*
X360170Y213705D01*
X361173Y213595D01*
X362181Y213632D01*
X363173Y213815D01*
X364127Y214141D01*
X365025Y214602D01*
X365845Y215189D01*
X366571Y215889D01*
X367188Y216688D01*
X367681Y217567D01*
X368042Y218509D01*
X368261Y219494D01*
X368335Y220500D01*
Y251500D02*
X368261Y252506D01*
X368042Y253491D01*
X367681Y254433D01*
X367188Y255312D01*
X366571Y256111D01*
X365845Y256811D01*
X365025Y257398D01*
X364127Y257859D01*
X363173Y258185D01*
X362181Y258368D01*
X361173Y258405D01*
X360170Y258295D01*
X359194Y258039D01*
X358266Y257645D01*
X357405Y257119D01*
X356629Y256474D01*
X355956Y255723D01*
X355400Y254882D01*
X354972Y253968D01*
X354681Y253002D01*
X354534Y252004D01*
Y250996D01*
X354681Y249998D01*
X354972Y249032D01*
X355400Y248118D01*
X355956Y247277D01*
X356629Y246526D01*
X357405Y245881D01*
X358266Y245355D01*
X359194Y244961D01*
X360170Y244706D01*
X361173Y244595D01*
X362181Y244632D01*
X363173Y244815D01*
X364127Y245141D01*
X365025Y245602D01*
X365845Y246189D01*
X366571Y246889D01*
X367188Y247688D01*
X367681Y248567D01*
X368042Y249509D01*
X368261Y250494D01*
X368335Y251500D01*
X408410Y220500D02*
X408336Y221506D01*
X408116Y222491D01*
X407756Y223433D01*
X407263Y224312D01*
X406646Y225111D01*
X405920Y225811D01*
X405099Y226398D01*
X404202Y226859D01*
X403248Y227185D01*
X402256Y227368D01*
X401248Y227405D01*
X400245Y227294D01*
X399269Y227039D01*
X398341Y226645D01*
X397480Y226119D01*
X396704Y225474D01*
X396031Y224723D01*
X395475Y223882D01*
X395046Y222968D01*
X394756Y222002D01*
X394609Y221004D01*
Y219996D01*
X394756Y218998D01*
X395046Y218032D01*
X395475Y217118D01*
X396031Y216277D01*
X396704Y215526D01*
X397480Y214881D01*
X398341Y214355D01*
X399269Y213961D01*
X400245Y213705D01*
X401248Y213595D01*
X402256Y213632D01*
X403248Y213815D01*
X404202Y214141D01*
X405099Y214602D01*
X405920Y215189D01*
X406646Y215889D01*
X407263Y216688D01*
X407756Y217567D01*
X408116Y218509D01*
X408336Y219494D01*
X408410Y220500D01*
X329039D02*
X328966Y221506D01*
X328746Y222491D01*
X328386Y223433D01*
X327892Y224312D01*
X327276Y225111D01*
X326550Y225811D01*
X325729Y226398D01*
X324832Y226859D01*
X323878Y227185D01*
X322886Y227368D01*
X321878Y227405D01*
X320875Y227294D01*
X319899Y227039D01*
X318971Y226645D01*
X318110Y226119D01*
X317334Y225474D01*
X316661Y224723D01*
X316105Y223882D01*
X315676Y222968D01*
X315386Y222002D01*
X315239Y221004D01*
Y219996D01*
X315386Y218998D01*
X315676Y218032D01*
X316105Y217118D01*
X316661Y216277D01*
X317334Y215526D01*
X318110Y214881D01*
X318971Y214355D01*
X319899Y213961D01*
X320875Y213705D01*
X321878Y213595D01*
X322886Y213632D01*
X323878Y213815D01*
X324832Y214141D01*
X325729Y214602D01*
X326550Y215189D01*
X327276Y215889D01*
X327892Y216688D01*
X328386Y217567D01*
X328746Y218509D01*
X328966Y219494D01*
X329039Y220500D01*
X352764Y263291D02*
X370480D01*
X373236Y246972D02*
Y256028D01*
X352370Y239709D02*
X370480D01*
X349634Y246972D02*
Y256028D01*
X373217Y215972D02*
Y225028D01*
X352370Y232291D02*
X370480D01*
X349614Y215972D02*
Y225028D01*
X352370Y208709D02*
X370087D01*
X413291Y215972D02*
Y225028D01*
X392445Y232291D02*
X410555D01*
X389689Y215972D02*
Y225028D01*
X392445Y208709D02*
X410161D01*
X333921Y215972D02*
Y225028D01*
X313075Y232291D02*
X331185D01*
X310319Y215972D02*
Y225028D01*
X313075Y208709D02*
X330791D01*
D14*
X417410Y344681D02*
X416819Y345271D01*
X415639D01*
X415048Y344681D01*
Y342319D01*
X415639Y341729D01*
X416819D01*
X417410Y342319D01*
X420952Y341729D02*
X418590D01*
X420952Y344090D01*
Y344681D01*
X420361Y345271D01*
X419181D01*
X418590Y344681D01*
X304548Y362729D02*
Y366271D01*
X306319D01*
X306910Y365681D01*
Y364500D01*
X306319Y363910D01*
X304548D01*
X305729D02*
X306910Y362729D01*
X308090Y365681D02*
X308681Y366271D01*
X309861D01*
X310452Y365681D01*
Y365090D01*
X309861Y364500D01*
X309271D01*
X309861D01*
X310452Y363910D01*
Y363319D01*
X309861Y362729D01*
X308681D01*
X308090Y363319D01*
X304548Y353729D02*
Y357271D01*
X306319D01*
X306910Y356681D01*
Y355500D01*
X306319Y354910D01*
X304548D01*
X305729D02*
X306910Y353729D01*
X310452D02*
X308090D01*
X310452Y356090D01*
Y356681D01*
X309861Y357271D01*
X308681D01*
X308090Y356681D01*
X348174Y363771D02*
Y360229D01*
X349945D01*
X350536Y360819D01*
Y363181D01*
X349945Y363771D01*
X348174D01*
X354078D02*
X351716D01*
Y362000D01*
X352897Y362590D01*
X353487D01*
X354078Y362000D01*
Y360819D01*
X353487Y360229D01*
X352307D01*
X351716Y360819D01*
X378048Y363271D02*
Y359729D01*
X379819D01*
X380410Y360319D01*
Y362681D01*
X379819Y363271D01*
X378048D01*
X383952D02*
X382771Y362681D01*
X381590Y361500D01*
Y360319D01*
X382181Y359729D01*
X383361D01*
X383952Y360319D01*
Y360910D01*
X383361Y361500D01*
X381590D01*
X456048Y352271D02*
Y349319D01*
X456639Y348729D01*
X457819D01*
X458410Y349319D01*
Y352271D01*
X461952Y348729D02*
X459590D01*
X461952Y351090D01*
Y351681D01*
X461361Y352271D01*
X460181D01*
X459590Y351681D01*
X466000Y323000D02*
Y324181D01*
Y323590D01*
X462458D01*
X463048Y323000D01*
X466000Y333861D02*
Y331500D01*
X463639Y333861D01*
X463048D01*
X462458Y333271D01*
Y332090D01*
X463048Y331500D01*
Y342000D02*
X462458Y342590D01*
Y343771D01*
X463048Y344361D01*
X463639D01*
X464229Y343771D01*
Y343181D01*
Y343771D01*
X464819Y344361D01*
X465410D01*
X466000Y343771D01*
Y342590D01*
X465410Y342000D01*
X445500Y295181D02*
X444910Y295771D01*
X443729D01*
X443139Y295181D01*
Y292819D01*
X443729Y292229D01*
X444910D01*
X445500Y292819D01*
X446681Y292229D02*
X447861D01*
X447271D01*
Y295771D01*
X446681Y295181D01*
X413548Y330229D02*
Y333771D01*
X415319D01*
X415910Y333181D01*
Y332000D01*
X415319Y331410D01*
X413548D01*
X414729D02*
X415910Y330229D01*
X418861D02*
Y333771D01*
X417090Y332000D01*
X419452D01*
X413548Y321229D02*
Y324771D01*
X415319D01*
X415910Y324181D01*
Y323000D01*
X415319Y322410D01*
X413548D01*
X414729D02*
X415910Y321229D01*
X419452Y324771D02*
X417090D01*
Y323000D01*
X418271Y323590D01*
X418861D01*
X419452Y323000D01*
Y321819D01*
X418861Y321229D01*
X417681D01*
X417090Y321819D01*
X305591Y343590D02*
Y347133D01*
X307362D01*
X307952Y346542D01*
Y345362D01*
X307362Y344771D01*
X305591D01*
X306771D02*
X307952Y343590D01*
X309133D02*
X310313D01*
X309723D01*
Y347133D01*
X309133Y346542D01*
X360139Y292271D02*
Y289319D01*
X360729Y288729D01*
X361910D01*
X362500Y289319D01*
Y292271D01*
X363681Y288729D02*
X364861D01*
X364271D01*
Y292271D01*
X363681Y291681D01*
X378229Y326639D02*
X381771D01*
Y328410D01*
X381181Y329000D01*
X378819D01*
X378229Y328410D01*
Y326639D01*
X381771Y330181D02*
Y331361D01*
Y330771D01*
X378229D01*
X378819Y330181D01*
X354729Y326048D02*
X358271D01*
Y327819D01*
X357681Y328410D01*
X355319D01*
X354729Y327819D01*
Y326048D01*
X358271Y331952D02*
Y329590D01*
X355910Y331952D01*
X355319D01*
X354729Y331361D01*
Y330181D01*
X355319Y329590D01*
X331229Y325548D02*
X334771D01*
Y327319D01*
X334181Y327910D01*
X331819D01*
X331229Y327319D01*
Y325548D01*
X331819Y329090D02*
X331229Y329681D01*
Y330861D01*
X331819Y331452D01*
X332410D01*
X333000Y330861D01*
Y330271D01*
Y330861D01*
X333590Y331452D01*
X334181D01*
X334771Y330861D01*
Y329681D01*
X334181Y329090D01*
X307729Y325548D02*
X311271D01*
Y327319D01*
X310681Y327910D01*
X308319D01*
X307729Y327319D01*
Y325548D01*
X311271Y330861D02*
X307729D01*
X309500Y329090D01*
Y331452D01*
X397639Y247229D02*
Y250771D01*
X399410D01*
X400000Y250181D01*
Y249000D01*
X399410Y248410D01*
X397639D01*
X401181Y247229D02*
X402361D01*
X401771D01*
Y250771D01*
X401181Y250181D01*
X359452Y253042D02*
X358862Y253633D01*
X357681D01*
X357090Y253042D01*
Y252452D01*
X357681Y251862D01*
X358862D01*
X359452Y251271D01*
Y250681D01*
X358862Y250091D01*
X357681D01*
X357090Y250681D01*
X360633Y253633D02*
Y250091D01*
X361813Y251271D01*
X362994Y250091D01*
Y253633D01*
X365946Y250091D02*
Y253633D01*
X364175Y251862D01*
X366536D01*
X359064Y221681D02*
X358473Y222271D01*
X357293D01*
X356702Y221681D01*
Y221090D01*
X357293Y220500D01*
X358473D01*
X359064Y219910D01*
Y219319D01*
X358473Y218729D01*
X357293D01*
X356702Y219319D01*
X360244Y222271D02*
Y218729D01*
X361425Y219910D01*
X362606Y218729D01*
Y222271D01*
X366148Y218729D02*
X363787D01*
X366148Y221090D01*
Y221681D01*
X365558Y222271D01*
X364377D01*
X363787Y221681D01*
X460572Y229729D02*
Y233271D01*
X462343D01*
X462934Y232681D01*
Y231500D01*
X462343Y230910D01*
X460572D01*
X461753D02*
X462934Y229729D01*
X464115D02*
X465295D01*
X464705D01*
Y233271D01*
X464115Y232681D01*
X469428Y229729D02*
X467066D01*
X469428Y232090D01*
Y232681D01*
X468837Y233271D01*
X467657D01*
X467066Y232681D01*
X441922Y284271D02*
Y280729D01*
X443693D01*
X444284Y281319D01*
Y283681D01*
X443693Y284271D01*
X441922D01*
X445464Y283681D02*
X446055Y284271D01*
X447235D01*
X447826Y283681D01*
Y283090D01*
X447235Y282500D01*
X447826Y281910D01*
Y281319D01*
X447235Y280729D01*
X446055D01*
X445464Y281319D01*
Y281910D01*
X446055Y282500D01*
X445464Y283090D01*
Y283681D01*
X446055Y282500D02*
X447235D01*
X441548Y261771D02*
Y258229D01*
X443319D01*
X443910Y258819D01*
Y261181D01*
X443319Y261771D01*
X441548D01*
X445090D02*
X447452D01*
Y261181D01*
X445090Y258819D01*
Y258229D01*
X415663Y254729D02*
Y258271D01*
X417434D01*
X418024Y257681D01*
Y256500D01*
X417434Y255910D01*
X415663D01*
X416843D02*
X418024Y254729D01*
X419205D02*
X420386D01*
X419795D01*
Y258271D01*
X419205Y257681D01*
X422157Y254729D02*
X423337D01*
X422747D01*
Y258271D01*
X422157Y257681D01*
X404072Y254729D02*
Y258271D01*
X405843D01*
X406434Y257681D01*
Y256500D01*
X405843Y255910D01*
X404072D01*
X405253D02*
X406434Y254729D01*
X407615D02*
X408795D01*
X408205D01*
Y258271D01*
X407615Y257681D01*
X410566D02*
X411157Y258271D01*
X412337D01*
X412928Y257681D01*
Y255319D01*
X412337Y254729D01*
X411157D01*
X410566Y255319D01*
Y257681D01*
X440048Y228771D02*
Y225819D01*
X440639Y225229D01*
X441819D01*
X442410Y225819D01*
Y228771D01*
X443590Y228181D02*
X444181Y228771D01*
X445361D01*
X445952Y228181D01*
Y227590D01*
X445361Y227000D01*
X444771D01*
X445361D01*
X445952Y226410D01*
Y225819D01*
X445361Y225229D01*
X444181D01*
X443590Y225819D01*
X318048Y195729D02*
Y199271D01*
X319819D01*
X320410Y198681D01*
Y197500D01*
X319819Y196910D01*
X318048D01*
X319229D02*
X320410Y195729D01*
X323952Y199271D02*
X322771Y198681D01*
X321590Y197500D01*
Y196319D01*
X322181Y195729D01*
X323361D01*
X323952Y196319D01*
Y196910D01*
X323361Y197500D01*
X321590D01*
X357548Y195729D02*
Y199271D01*
X359319D01*
X359910Y198681D01*
Y197500D01*
X359319Y196910D01*
X357548D01*
X358729D02*
X359910Y195729D01*
X361090Y199271D02*
X363452D01*
Y198681D01*
X361090Y196319D01*
Y195729D01*
X318548Y241229D02*
Y244771D01*
X320319D01*
X320910Y244181D01*
Y243000D01*
X320319Y242410D01*
X318548D01*
X319729D02*
X320910Y241229D01*
X322090Y241819D02*
X322681Y241229D01*
X323861D01*
X324452Y241819D01*
Y244181D01*
X323861Y244771D01*
X322681D01*
X322090Y244181D01*
Y243590D01*
X322681Y243000D01*
X324452D01*
X395048Y195729D02*
Y199271D01*
X396819D01*
X397410Y198681D01*
Y197500D01*
X396819Y196910D01*
X395048D01*
X396229D02*
X397410Y195729D01*
X398590Y198681D02*
X399181Y199271D01*
X400361D01*
X400952Y198681D01*
Y198090D01*
X400361Y197500D01*
X400952Y196910D01*
Y196319D01*
X400361Y195729D01*
X399181D01*
X398590Y196319D01*
Y196910D01*
X399181Y197500D01*
X398590Y198090D01*
Y198681D01*
X399181Y197500D02*
X400361D01*
X420500Y205271D02*
X419319D01*
X419910D01*
Y202319D01*
X419319Y201729D01*
X418729D01*
X418139Y202319D01*
X421681Y201729D02*
X422861D01*
X422271D01*
Y205271D01*
X421681Y204681D01*
X399139Y221681D02*
X398548Y222271D01*
X397368D01*
X396777Y221681D01*
Y221090D01*
X397368Y220500D01*
X398548D01*
X399139Y219910D01*
Y219319D01*
X398548Y218729D01*
X397368D01*
X396777Y219319D01*
X400319Y222271D02*
Y218729D01*
X401500Y219910D01*
X402681Y218729D01*
Y222271D01*
X403861Y221681D02*
X404452Y222271D01*
X405632D01*
X406223Y221681D01*
Y221090D01*
X405632Y220500D01*
X405042D01*
X405632D01*
X406223Y219910D01*
Y219319D01*
X405632Y218729D01*
X404452D01*
X403861Y219319D01*
X320359Y221181D02*
X319769Y221771D01*
X318588D01*
X317997Y221181D01*
Y220590D01*
X318588Y220000D01*
X319769D01*
X320359Y219410D01*
Y218819D01*
X319769Y218229D01*
X318588D01*
X317997Y218819D01*
X321540Y221771D02*
Y218229D01*
X322720Y219410D01*
X323901Y218229D01*
Y221771D01*
X325082Y218229D02*
X326262D01*
X325672D01*
Y221771D01*
X325082Y221181D01*
M02*
