G04*
G04 #@! TF.GenerationSoftware,Altium Limited,Altium Designer,20.1.11 (218)*
G04*
G04 Layer_Color=255*
%FSLAX25Y25*%
%MOIN*%
G70*
G04*
G04 #@! TF.SameCoordinates,E6333289-3B3F-416E-ACC7-16277D215EEB*
G04*
G04*
G04 #@! TF.FilePolarity,Positive*
G04*
G01*
G75*
%ADD36C,0.03937*%
%ADD37C,0.05512*%
%ADD38R,0.06299X0.06299*%
%ADD39C,0.06299*%
%ADD40C,0.05906*%
%ADD41R,0.05906X0.05906*%
%ADD42C,0.05898*%
%ADD43R,0.05898X0.05898*%
%ADD44O,0.03543X0.06299*%
D36*
X421874Y349000D02*
D03*
X414000D02*
D03*
X347126Y356000D02*
D03*
X355000D02*
D03*
X377126D02*
D03*
X385000D02*
D03*
X449500Y299500D02*
D03*
X441626D02*
D03*
X303500Y324500D02*
D03*
Y332374D02*
D03*
X374000Y325500D02*
D03*
Y333374D02*
D03*
X350500Y332874D02*
D03*
Y325000D02*
D03*
X327000Y332374D02*
D03*
Y324500D02*
D03*
X441000Y276500D02*
D03*
X448874D02*
D03*
X440500Y254500D02*
D03*
X448374D02*
D03*
D37*
X323000Y364500D02*
D03*
X293000D02*
D03*
X323000Y355500D02*
D03*
X293000D02*
D03*
X401500Y332000D02*
D03*
X431500D02*
D03*
X401500Y323000D02*
D03*
X431500D02*
D03*
X336000Y197500D02*
D03*
X306000D02*
D03*
X375000D02*
D03*
X345000D02*
D03*
X336500Y243000D02*
D03*
X306500D02*
D03*
X413500Y197500D02*
D03*
X383500D02*
D03*
X323000Y345500D02*
D03*
X293000D02*
D03*
D38*
X457500Y323000D02*
D03*
D39*
Y333000D02*
D03*
Y343000D02*
D03*
D40*
X297597Y275500D02*
D03*
X307597D02*
D03*
X317597D02*
D03*
X327597D02*
D03*
X337597D02*
D03*
X347597D02*
D03*
X357597D02*
D03*
X367597D02*
D03*
X377597D02*
D03*
X387597D02*
D03*
X397597D02*
D03*
X407597D02*
D03*
X417597D02*
D03*
X427597D02*
D03*
X297597Y305500D02*
D03*
X307597D02*
D03*
X317597D02*
D03*
X327597D02*
D03*
X337597D02*
D03*
X347597D02*
D03*
X357597D02*
D03*
X367597D02*
D03*
X377597D02*
D03*
X387597D02*
D03*
X397597D02*
D03*
X407597D02*
D03*
X417597D02*
D03*
X391000Y245000D02*
D03*
D41*
X427597Y305500D02*
D03*
X391000Y255000D02*
D03*
D42*
X348630Y242642D02*
D03*
X374220D02*
D03*
Y260358D02*
D03*
X348630Y211642D02*
D03*
Y229358D02*
D03*
X374220D02*
D03*
X388705Y211642D02*
D03*
Y229358D02*
D03*
X414295D02*
D03*
X309335Y211642D02*
D03*
Y229358D02*
D03*
X334925D02*
D03*
D43*
X348630Y260358D02*
D03*
X374220Y211642D02*
D03*
X414295D02*
D03*
X334925D02*
D03*
D44*
X456142Y192500D02*
D03*
X430158D02*
D03*
M02*
